<svg width="215" height="48" viewBox="0 0 215 48" fill="none" xmlns="http://www.w3.org/2000/svg">
<circle cx="24" cy="24" r="24" fill="#EBA417"/>
<circle cx="24" cy="24" r="24" fill="#FFD072" fill-opacity="0.2"/>
<path d="M65.668 31.1602H75.4297V33H63.0078V31.3125L72.3594 17.7891H63.1602V15.9375H75.0547V17.5898L65.668 31.1602ZM83.0117 33.2344C81.293 33.2344 79.8945 32.6719 78.8164 31.5469C77.7383 30.4141 77.1992 28.9023 77.1992 27.0117V26.6133C77.1992 25.3555 77.4375 24.2344 77.9141 23.25C78.3984 22.2578 79.0703 21.4844 79.9297 20.9297C80.7969 20.3672 81.7344 20.0859 82.7422 20.0859C84.3906 20.0859 85.6719 20.6289 86.5859 21.7148C87.5 22.8008 87.957 24.3555 87.957 26.3789V27.2812H79.3672C79.3984 28.5312 79.7617 29.543 80.457 30.3164C81.1602 31.082 82.0508 31.4648 83.1289 31.4648C83.8945 31.4648 84.543 31.3086 85.0742 30.9961C85.6055 30.6836 86.0703 30.2695 86.4688 29.7539L87.793 30.7852C86.7305 32.418 85.1367 33.2344 83.0117 33.2344ZM82.7422 21.8672C81.8672 21.8672 81.1328 22.1875 80.5391 22.8281C79.9453 23.4609 79.5781 24.3516 79.4375 25.5H85.7891V25.3359C85.7266 24.2344 85.4297 23.3828 84.8984 22.7812C84.3672 22.1719 83.6484 21.8672 82.7422 21.8672ZM83.7969 15H86.4219L83.2812 18.4453H81.5352L83.7969 15ZM89.6914 20.7422L88.4609 19.8984C89.1875 18.8828 89.5625 17.8125 89.5859 16.6875V15H91.7305V16.5234C91.7227 17.3047 91.5273 18.0859 91.1445 18.8672C90.7695 19.6406 90.2852 20.2656 89.6914 20.7422ZM100.414 29.6367C100.414 29.0508 100.191 28.5977 99.7461 28.2773C99.3086 27.9492 98.5391 27.668 97.4375 27.4336C96.3438 27.1992 95.4727 26.918 94.8242 26.5898C94.1836 26.2617 93.707 25.8711 93.3945 25.418C93.0898 24.9648 92.9375 24.4258 92.9375 23.8008C92.9375 22.7617 93.375 21.8828 94.25 21.1641C95.1328 20.4453 96.2578 20.0859 97.625 20.0859C99.0625 20.0859 100.227 20.457 101.117 21.1992C102.016 21.9414 102.465 22.8906 102.465 24.0469H100.285C100.285 23.4531 100.031 22.9414 99.5234 22.5117C99.0234 22.082 98.3906 21.8672 97.625 21.8672C96.8359 21.8672 96.2188 22.0391 95.7734 22.3828C95.3281 22.7266 95.1055 23.1758 95.1055 23.7305C95.1055 24.2539 95.3125 24.6484 95.7266 24.9141C96.1406 25.1797 96.8867 25.4336 97.9648 25.6758C99.0508 25.918 99.9297 26.207 100.602 26.543C101.273 26.8789 101.77 27.2852 102.09 27.7617C102.418 28.2305 102.582 28.8047 102.582 29.4844C102.582 30.6172 102.129 31.5273 101.223 32.2148C100.316 32.8945 99.1406 33.2344 97.6953 33.2344C96.6797 33.2344 95.7812 33.0547 95 32.6953C94.2188 32.3359 93.6055 31.8359 93.1602 31.1953C92.7227 30.5469 92.5039 29.8477 92.5039 29.0977H94.6719C94.7109 29.8242 95 30.4023 95.5391 30.832C96.0859 31.2539 96.8047 31.4648 97.6953 31.4648C98.5156 31.4648 99.1719 31.3008 99.6641 30.9727C100.164 30.6367 100.414 30.1914 100.414 29.6367ZM113.715 33H111.547V15H113.715V33ZM119.551 33H117.383V20.3203H119.551V33ZM117.207 16.957C117.207 16.6055 117.312 16.3086 117.523 16.0664C117.742 15.8242 118.062 15.7031 118.484 15.7031C118.906 15.7031 119.227 15.8242 119.445 16.0664C119.664 16.3086 119.773 16.6055 119.773 16.957C119.773 17.3086 119.664 17.6016 119.445 17.8359C119.227 18.0703 118.906 18.1875 118.484 18.1875C118.062 18.1875 117.742 18.0703 117.523 17.8359C117.312 17.6016 117.207 17.3086 117.207 16.957ZM125.973 17.25V20.3203H128.34V21.9961H125.973V29.8594C125.973 30.3672 126.078 30.75 126.289 31.0078C126.5 31.2578 126.859 31.3828 127.367 31.3828C127.617 31.3828 127.961 31.3359 128.398 31.2422V33C127.828 33.1562 127.273 33.2344 126.734 33.2344C125.766 33.2344 125.035 32.9414 124.543 32.3555C124.051 31.7695 123.805 30.9375 123.805 29.8594V21.9961H121.496V20.3203H123.805V17.25H125.973ZM133.824 17.25V20.3203H136.191V21.9961H133.824V29.8594C133.824 30.3672 133.93 30.75 134.141 31.0078C134.352 31.2578 134.711 31.3828 135.219 31.3828C135.469 31.3828 135.812 31.3359 136.25 31.2422V33C135.68 33.1562 135.125 33.2344 134.586 33.2344C133.617 33.2344 132.887 32.9414 132.395 32.3555C131.902 31.7695 131.656 30.9375 131.656 29.8594V21.9961H129.348V20.3203H131.656V17.25H133.824ZM141.09 33H138.922V15H141.09V33ZM149.832 33.2344C148.113 33.2344 146.715 32.6719 145.637 31.5469C144.559 30.4141 144.02 28.9023 144.02 27.0117V26.6133C144.02 25.3555 144.258 24.2344 144.734 23.25C145.219 22.2578 145.891 21.4844 146.75 20.9297C147.617 20.3672 148.555 20.0859 149.562 20.0859C151.211 20.0859 152.492 20.6289 153.406 21.7148C154.32 22.8008 154.777 24.3555 154.777 26.3789V27.2812H146.188C146.219 28.5312 146.582 29.543 147.277 30.3164C147.98 31.082 148.871 31.4648 149.949 31.4648C150.715 31.4648 151.363 31.3086 151.895 30.9961C152.426 30.6836 152.891 30.2695 153.289 29.7539L154.613 30.7852C153.551 32.418 151.957 33.2344 149.832 33.2344ZM149.562 21.8672C148.688 21.8672 147.953 22.1875 147.359 22.8281C146.766 23.4609 146.398 24.3516 146.258 25.5H152.609V25.3359C152.547 24.2344 152.25 23.3828 151.719 22.7812C151.188 22.1719 150.469 21.8672 149.562 21.8672ZM170.633 29.6367C170.633 29.0508 170.41 28.5977 169.965 28.2773C169.527 27.9492 168.758 27.668 167.656 27.4336C166.562 27.1992 165.691 26.918 165.043 26.5898C164.402 26.2617 163.926 25.8711 163.613 25.418C163.309 24.9648 163.156 24.4258 163.156 23.8008C163.156 22.7617 163.594 21.8828 164.469 21.1641C165.352 20.4453 166.477 20.0859 167.844 20.0859C169.281 20.0859 170.445 20.457 171.336 21.1992C172.234 21.9414 172.684 22.8906 172.684 24.0469H170.504C170.504 23.4531 170.25 22.9414 169.742 22.5117C169.242 22.082 168.609 21.8672 167.844 21.8672C167.055 21.8672 166.438 22.0391 165.992 22.3828C165.547 22.7266 165.324 23.1758 165.324 23.7305C165.324 24.2539 165.531 24.6484 165.945 24.9141C166.359 25.1797 167.105 25.4336 168.184 25.6758C169.27 25.918 170.148 26.207 170.82 26.543C171.492 26.8789 171.988 27.2852 172.309 27.7617C172.637 28.2305 172.801 28.8047 172.801 29.4844C172.801 30.6172 172.348 31.5273 171.441 32.2148C170.535 32.8945 169.359 33.2344 167.914 33.2344C166.898 33.2344 166 33.0547 165.219 32.6953C164.438 32.3359 163.824 31.8359 163.379 31.1953C162.941 30.5469 162.723 29.8477 162.723 29.0977H164.891C164.93 29.8242 165.219 30.4023 165.758 30.832C166.305 31.2539 167.023 31.4648 167.914 31.4648C168.734 31.4648 169.391 31.3008 169.883 30.9727C170.383 30.6367 170.633 30.1914 170.633 29.6367ZM177.793 21.8555C178.754 20.6758 180.004 20.0859 181.543 20.0859C184.223 20.0859 185.574 21.5977 185.598 24.6211V33H183.43V24.6094C183.422 23.6953 183.211 23.0195 182.797 22.582C182.391 22.1445 181.754 21.9258 180.887 21.9258C180.184 21.9258 179.566 22.1133 179.035 22.4883C178.504 22.8633 178.09 23.3555 177.793 23.9648V33H175.625V15H177.793V21.8555ZM188.27 26.543C188.27 25.3008 188.512 24.1836 188.996 23.1914C189.488 22.1992 190.168 21.4336 191.035 20.8945C191.91 20.3555 192.906 20.0859 194.023 20.0859C195.75 20.0859 197.145 20.6836 198.207 21.8789C199.277 23.0742 199.812 24.6641 199.812 26.6484V26.8008C199.812 28.0352 199.574 29.1445 199.098 30.1289C198.629 31.1055 197.953 31.8672 197.07 32.4141C196.195 32.9609 195.188 33.2344 194.047 33.2344C192.328 33.2344 190.934 32.6367 189.863 31.4414C188.801 30.2461 188.27 28.6641 188.27 26.6953V26.543ZM190.449 26.8008C190.449 28.207 190.773 29.3359 191.422 30.1875C192.078 31.0391 192.953 31.4648 194.047 31.4648C195.148 31.4648 196.023 31.0352 196.672 30.1758C197.32 29.3086 197.645 28.0977 197.645 26.543C197.645 25.1523 197.312 24.0273 196.648 23.168C195.992 22.3008 195.117 21.8672 194.023 21.8672C192.953 21.8672 192.09 22.293 191.434 23.1445C190.777 23.9961 190.449 25.2148 190.449 26.8008ZM213.242 26.8008C213.242 28.7305 212.801 30.2852 211.918 31.4648C211.035 32.6445 209.84 33.2344 208.332 33.2344C206.793 33.2344 205.582 32.7461 204.699 31.7695V37.875H202.531V20.3203H204.512L204.617 21.7266C205.5 20.6328 206.727 20.0859 208.297 20.0859C209.82 20.0859 211.023 20.6602 211.906 21.8086C212.797 22.957 213.242 24.5547 213.242 26.6016V26.8008ZM211.074 26.5547C211.074 25.125 210.77 23.9961 210.16 23.168C209.551 22.3398 208.715 21.9258 207.652 21.9258C206.34 21.9258 205.355 22.5078 204.699 23.6719V29.7305C205.348 30.8867 206.34 31.4648 207.676 31.4648C208.715 31.4648 209.539 31.0547 210.148 30.2344C210.766 29.4062 211.074 28.1797 211.074 26.5547Z" fill="white"/>
<circle cx="14.2456" cy="14.3158" r="2.24561" fill="white"/>
<circle cx="32.9123" cy="14.3158" r="2.24561" fill="white"/>
<circle cx="14.2456" cy="33.6842" r="2.24561" fill="white"/>
<path d="M16 35.1579L34.8772 15.3684H29.1228L12.5614 32.2105L16 35.1579Z" fill="white"/>
<circle cx="33.0526" cy="33.6842" r="2.24561" fill="white"/>
<path d="M33.1228 16.5614H14.3158V12H33.1228V16.5614Z" fill="white"/>
<path d="M32.9122 36H14.1052V31.4386H32.9122V36Z" fill="white"/>
</svg>
